<svg width="20" height="46" viewBox="0 0 20 46" fill="none" xmlns="http://www.w3.org/2000/svg">
<path d="M10.0383 8.692C10.0383 10.6347 9.43893 15.388 8.24027 22.952C7.0416 30.4747 6.44227 35.6207 6.44227 38.39C6.44227 39.0513 6.62827 40.002 7.00027 41.242C7.37227 42.482 7.55827 43.3707 7.55827 43.908C7.55827 44.404 7.24827 44.652 6.62827 44.652C4.3136 44.652 3.05293 44.156 2.84627 43.164C2.7636 42.8747 2.5156 42.0067 2.10227 40.56C1.31693 37.8733 0.924266 35.7033 0.924266 34.05C0.924266 24.8327 2.74293 14.4167 6.38027 2.802C6.7936 1.52066 7.14493 0.879997 7.43427 0.879997C7.55827 0.879997 7.80627 1.066 8.17827 1.438C9.41827 2.71933 10.0383 5.13733 10.0383 8.692ZM16.1811 45.272C15.1891 45.272 14.3418 44.7967 13.6391 43.846C12.9778 42.854 12.6471 41.6967 12.6471 40.374C12.6471 38.9687 12.9778 37.8113 13.6391 36.902C14.3418 35.9513 15.1891 35.476 16.1811 35.476C17.1318 35.476 17.9378 35.9513 18.5991 36.902C19.3018 37.8113 19.6531 38.9687 19.6531 40.374C19.6531 41.6967 19.3018 42.854 18.5991 43.846C17.9378 44.7967 17.1318 45.272 16.1811 45.272Z" fill="white"/>
</svg>
