<svg xmlns="http://www.w3.org/2000/svg" fill="none" viewBox="0 0 74 73"><defs/><path fill="#fff" d="M69 26L48 4l-5-2-3 1L5 34a6 6 0 00-2 4c0 2 0 3 2 5l26 26 4 2a6 6 0 004-2l31-36c2-2 1-5-1-7zM5 38a4 4 0 011-2L42 5l1-1 3 2 2 2L8 44l-2-3-1-3zm63-6L38 67a4 4 0 01-3 2l-3-2-14-14 38-38 12 12v5z"/><path fill="#fff" d="M55 21L26 51l9 8 1-1 2-1 3-4 22-24-8-8zm-1 11s-2 0 0-1v1zm6-4v1L45 46l1-4 1-1 3-2 2-4 3-3 5-4zM28 51l27-28 4 5a64 64 0 01-4 3l-1-1c-1 0-2 3 0 3v-1l-1 1-2 2-2 3-3 3-1 2v-1-1c-1 1-2 3-1 5h-1l-1 1h1l-2 1c0-2 1-6-2-7-1 2-2 6 0 8v-1c-2-1-1-4 0-5 1-3 2 2 2 2v3c-3 2-7 4-7 7l1 2-7-6zm16-9v0zm-9 14v-1l1-2 5-4v2l-6 5zm4 0l-2 1-1 1 4-4-1 2zm2-8l2-1 1-1-3 4v-2z"/></svg>