<svg width="162" height="253" viewBox="0 0 162 253" fill="none" xmlns="http://www.w3.org/2000/svg">
<path d="M150.491 57.3382C149.188 58.4809 146.688 60.6356 142.931 56.731C139.182 52.8305 141.497 50.3174 143.217 48.285C143.917 47.4543 145.009 46.476 145.009 44.4815C145.009 42.6515 141.324 40.9775 143.032 42.428C143.032 42.428 145.22 43.4274 142.408 47.5977C140.434 46.573 137.314 47.1591 137.314 47.1591C139.865 47.3742 141.294 48.0404 141.876 48.382C140.439 50.3048 138.807 52.6071 140.692 55.369C142.762 58.4134 145.376 61.5042 149.686 59.0164C153.995 56.5328 152.743 55.3605 150.491 57.3382Z" fill="white"/>
<path d="M154.577 44.0979C156.618 41.8926 158.443 39.274 158.599 36.841C158.653 36.0753 158.548 35.3068 158.291 34.5834C158.034 33.8601 157.631 33.1975 157.107 32.637C156.381 31.8654 154.159 29.5167 150.853 29.5167C148.589 29.5167 146.489 30.6046 144.604 32.7466C144.031 33.396 142.964 34.4923 141.459 36.0103C140.985 35.9082 140.501 35.8559 140.017 35.8543C136.542 35.8543 134.704 38.4054 134.012 39.3668L133.864 39.565C132.911 40.792 132.06 42.9721 131.398 44.9539C131.318 44.6376 131.229 44.3383 131.153 44.0178C131.153 44.0178 123.955 49.9633 118.916 55.2932C118.916 55.2932 119.123 56.3515 119.675 57.8611C113.869 64.5783 107.135 69.381 100.983 72.7881C102.48 69.2841 103.277 64.8987 103.277 59.4002C103.277 47.973 102.05 40.168 99.4733 34.7791C125.208 28.8251 110.319 0 110.319 0C92.0351 8.10443 74.595 0.87285 54.7935 3.36912C15.5237 8.3237 24.1257 26.8138 24.1257 26.8138C16.6875 34.9941 18.7242 45.1774 28.0725 56.4612C30.0122 58.8056 31.4585 61.5423 32.5548 64.3927C32.909 66.1595 33.4446 67.8167 34.1192 69.3853C35.1565 73.5682 35.5908 77.6963 35.7384 80.9937C6.00249 104.097 0.664187 113.53 2.36772 129.599C1.82301 130.073 1.31812 130.59 0.858154 131.147C0.858154 131.147 2.0599 136.27 2.40989 141.267C1.1744 145.138 -0.26348 153.71 6.63499 162.983C8.97945 166.137 13.7021 168.169 18.6694 168.169C21.1825 168.169 23.6619 167.667 26.0443 166.693C27.9671 165.901 30.611 164.517 31.3826 161.654C32.2091 158.58 30.3327 156.228 28.8273 154.334C28.595 154.047 28.3672 153.756 28.1442 153.461C29.3333 151.716 30.1851 149.409 28.9412 146.715C28.3929 145.591 27.6392 144.58 26.719 143.734C26.1582 140.761 25.6058 135.49 27.6593 131.143C27.6593 131.143 27.2545 130.24 25.9262 129.194C28.0261 123.059 32.8964 115.524 44.1844 109.718C43.9188 116.051 42.4767 131.218 35.2451 152.804L34.9035 153.832L35.5613 154.705C35.7047 154.887 37.4335 157.092 41.355 159.285C39.8961 164.324 39.4828 171.648 42.0972 182.215C45.538 196.117 38.5467 221.088 25.8377 240.283L24.3914 242.467L26.8876 243.399C27.0394 243.458 28.8315 244.09 31.6946 244.773C31.332 247.08 31.5428 249.96 33.5247 253H45.9301V248.223C45.9301 248.223 48.0047 253 66.9544 253C73.5113 253 74.1986 246.789 67.3002 246.426C64.8587 246.296 63.4208 245.604 62.2739 244.44C63.4124 244.12 64.5425 243.799 65.643 243.403L67.7471 242.635L66.8912 240.611C66.8406 240.489 61.7131 227.814 70.9602 203.783C72.3855 200.068 71.9554 196.552 71.462 192.474C70.859 187.6 70.1422 181.675 72.7481 173.377C76.1172 177.682 83.6187 186.01 99.8275 200.119C98.8282 205.284 95.5223 225.478 101.105 242.087L101.4 242.977L102.286 243.357C102.497 243.445 103.631 243.875 106.233 244.305C105.748 246.675 105.853 249.753 107.961 253H120.38V248.223C120.38 248.223 122.442 253 141.395 253C147.952 253 148.644 246.789 141.741 246.426C139.279 246.296 137.845 245.562 136.698 244.377C140.063 243.938 141.809 243.504 141.948 243.462L145.705 242.492L142.88 239.89C142.757 239.777 130.479 228.172 123.884 194.397C122.783 188.78 118.368 184.348 112.781 178.732C107.966 173.891 102.176 168 97.3102 159.904C110.938 159.352 118.377 157.699 119.224 154.929L119.431 154.246L119.174 153.588C108.607 126.281 107.759 99.1507 107.708 92.9649C117.145 88.6048 127.27 81.0317 134.366 75.2169C134.729 75.3814 135.075 75.5627 135.463 75.706C135.463 75.706 143.381 71.5948 147.881 66.7203L147.809 66.6782L148.589 66.2059C159.089 59.7797 161.083 56.9967 161.083 54.1125C161.083 50.3554 157.765 46.7249 154.577 44.0979ZM40.3852 46.358C46.4572 50.3091 50.2564 66.7119 50.2564 66.7119C54.3887 64.4518 53.6087 61.0742 53.6087 61.0742C48.2408 48.9935 46.2126 31.1865 46.2126 31.1865C64.2304 28.9137 64.728 39.2403 95.1555 35.5212C97.9132 40.2776 98.9463 47.7242 98.9463 59.4002C98.9463 77.8734 89.619 81.4238 71.2554 81.757C64.3527 81.8877 55.6116 81.213 48.5824 77.9535C48.0722 69.3431 42.7001 61.2893 42.7001 61.2893C42.7001 61.2893 40.4231 62.1537 37.3576 57.0304C34.2879 51.9156 34.3132 42.4155 40.3852 46.358ZM79.0815 104.253C79.0815 104.253 77.0196 94.154 70.5512 85.9821L71.344 85.9778C74.2225 85.9362 77.0974 85.756 79.9586 85.4381C78.0442 93.9178 79.0815 104.253 79.0815 104.253ZM79.1532 106.319C88.4088 128.604 75.645 150.615 75.645 150.615C84.8246 126.125 79.1532 106.319 79.1532 106.319ZM24.3534 162.81C22.5501 163.558 20.6177 163.947 18.6651 163.952C14.7352 163.952 11.4884 162.329 10.1348 160.512C5.29409 153.997 5.34047 147.984 6.04466 144.412C9.12704 143.852 14.0943 143.481 20.3518 144.497C21.3765 144.999 23.4932 146.2 24.5938 147.824C25.1293 149.181 23.3962 151.383 22.3674 150.409C20.7777 148.916 18.6609 146.976 18.6609 146.976C21.3722 149.742 22.8396 153.12 22.8396 153.12C25.1925 158.02 30.5477 160.267 24.3534 162.81ZM39.74 152.951C49.2697 124.004 48.5782 106.939 48.5444 106.218L48.3969 103.114L45.4916 104.396C31.0874 110.747 24.754 119.766 22.0258 127.246C20.9318 126.881 19.807 126.616 18.6651 126.454L15.6376 138.458L12.7618 126.74C12.7618 126.74 9.81857 125.935 6.36934 127.145C5.47119 114.626 10.5607 106.214 35.7595 86.3658C35.7216 87.3609 35.671 87.9681 35.671 87.9681C46.6512 89.7138 47.9794 85.5646 48.3926 82.4316C51.7027 83.7641 55.2321 84.6369 58.7614 85.1809L59.5542 85.573C59.7439 85.9863 59.8831 86.3995 60.0644 86.8127L52.5714 89.8656C52.5714 89.8656 56.7374 90.5445 62.5269 93.1546C73.1445 124.375 62.3034 153.314 59.6638 159.538C47.465 159.213 41.6207 154.764 39.74 152.951ZM109.678 181.662C114.763 186.777 118.781 190.813 119.633 195.185C124.731 221.291 133.076 234.641 137.305 240.03C134.126 240.489 128.804 241.033 121.387 241.033C111.411 241.033 106.637 240.177 104.866 239.739C99.4438 222.197 104.242 200.018 104.289 199.794L104.554 198.592L103.614 197.779C78.1749 175.725 74.1185 167.899 74.089 167.849L71.9849 163.32L70.1043 167.95C65.4744 179.322 66.402 186.891 67.1484 192.98C67.5911 196.644 67.9453 199.554 66.8827 202.311C59.0945 222.564 60.9246 235.294 62.1854 240.097C57.1988 241.616 52.0115 242.374 46.7987 242.345C39.8792 242.345 34.1066 241.092 30.9694 240.236C43.4887 220.241 49.9022 195.805 46.297 181.228C43.982 171.871 44.2392 165.466 45.3356 161.132C49.2107 162.616 54.3677 163.775 61.0806 163.775H62.451L63.0371 162.565C63.2311 162.177 64.4708 159.55 65.9424 155.262L84.8795 156.194C84.6644 156.645 84.5 156.961 84.4873 156.987L82.691 160.124H86.3722C88.5142 160.124 90.4876 160.098 92.4231 160.056C97.7656 169.624 104.31 176.269 109.678 181.662ZM130.462 72.8682C123.289 78.6661 113.464 85.8766 104.677 89.6843L103.416 90.2282L103.386 91.5649C103.382 91.8727 102.88 122.068 114.383 153.095C109.083 151.876 99.7854 153.993 93.355 155.818C92.1548 155.848 90.9544 155.867 89.7539 155.878C92.9459 148.077 99.2288 126.091 88.1558 91.0463C92.2375 86.9519 95.8807 84.8393 95.8807 84.8393C93.7935 82.6762 89.4208 83.4605 88.5227 83.6545C90.8966 82.8702 93.0345 81.8582 94.873 80.5257C102.657 77.2957 112.992 71.6243 121.754 62.0103C122.281 62.8241 122.867 63.6422 123.593 64.4265L134.29 59.0418L126.468 68.8413C126.468 68.8455 127.885 70.8737 130.462 72.8682ZM146.291 62.6344C140.873 59.2568 136.761 54.395 134.763 48.7067C134.763 48.7067 136.192 43.5624 137.314 42.1161C137.841 41.4414 138.587 40.071 140.017 40.071C140.662 40.071 141.45 40.3493 142.416 41.0999C145.368 38.1566 147.042 36.4531 147.889 35.4917C148.931 34.3068 149.892 33.7333 150.853 33.7333C151.836 33.7333 152.831 34.3363 153.919 35.4917C156.078 37.7729 147.889 44.5154 147.889 44.5154C147.889 44.5154 156.753 50.1151 156.753 54.1125C156.753 55.951 150.444 60.0917 146.291 62.6344Z" fill="white"/>
<path d="M60.891 54.2938C64.3586 54.2938 67.1696 51.5545 67.1696 48.1755C67.1696 44.7964 64.3586 42.0571 60.891 42.0571C57.4234 42.0571 54.6124 44.7964 54.6124 48.1755C54.6124 51.5545 57.4234 54.2938 60.891 54.2938Z" fill="white"/>
<path d="M91.618 54.2938C95.0902 54.2938 97.905 51.5545 97.905 48.1755C97.905 44.7964 95.0902 42.0571 91.618 42.0571C88.1457 42.0571 85.3309 44.7964 85.3309 48.1755C85.3309 51.5545 88.1457 54.2938 91.618 54.2938Z" fill="white"/>
<path d="M65.2593 68.1627C67.2201 71.6583 71.1795 74.7786 76.2395 74.7786C81.3122 74.7786 85.2843 71.6583 87.2408 68.1627C87.7679 67.2223 87.0637 66.2103 86.2879 66.7922C79.8279 71.692 72.6385 71.6583 66.2039 66.7922C65.428 66.2103 64.7323 67.2223 65.2593 68.1627Z" fill="white"/>
</svg>
