<svg xmlns="http://www.w3.org/2000/svg" fill="none" viewBox="0 0 73 73"><defs/><path fill="#fff" d="M69 35h-8l5-5a2 2 0 10-3-2l-7 7h-5l3-3a2 2 0 10-3-2l-5 5h-5l10-11h10a2 2 0 100-3h-7l7-6a2 2 0 10-3-3l-6 7v-7a2 2 0 00-3 0v10L38 32v-5l5-5a2 2 0 10-2-3l-3 3v-5l7-7a2 2 0 10-2-3l-5 5V4a2 2 0 00-3 0v8l-5-5a2 2 0 10-2 3l7 7v5l-3-3a2 2 0 10-2 3l5 5v5L24 22V12a2 2 0 10-3 0v7l-6-7a2 2 0 10-3 3l7 6h-7a2 2 0 000 3h10l10 11h-5l-5-5a2 2 0 10-3 2l3 3h-5l-7-7a2 2 0 10-3 2l5 5H4a2 2 0 100 3h8l-5 5a2 2 0 003 2l7-7h5l-3 3a2 2 0 103 2l5-5h5L22 49H12a2 2 0 100 3h7l-7 6a2 2 0 103 3l6-7v7a2 2 0 003 0V51l11-10v5l-5 5a2 2 0 002 3l3-3v5l-7 7a2 2 0 002 3l5-5v8a2 2 0 103 0v-8l5 5a2 2 0 003-1 2 2 0 00-1-2l-7-7v-5l3 3a2 2 0 102-3l-5-5v-5l11 10v10a2 2 0 003 0v-7l6 7a2 2 0 103-3l-7-6h7a2 2 0 100-3H51L41 38h5l5 5a2 2 0 003 0 2 2 0 000-2l-3-3h5l7 7a2 2 0 103-2l-5-5h8a2 2 0 100-3z"/></svg>