<svg xmlns="http://www.w3.org/2000/svg" fill="none" viewBox="0 0 63 63"><defs/><path fill="#748a93" d="M32 9h-1C7 9 2 17 2 31l1 9h57l1-9c0-14-5-22-29-22z"/><path fill="#ffe1bd" d="M58 36c-9-3-2-13-2-15 0 0-2-19-24-19S7 21 7 21c0 2 7 12-2 15 0 0-3 0-3 4 0 5 4 4 4 4 0 7 7 17 26 17s25-10 25-17c0 0 4 1 4-4 0-4-3-4-3-4z"/><g fill="#748a93"><path d="M40 52v-1c0-3-4-5-8-5s-9 2-9 5v1zM17 10l7-2 8-1a30 30 0 0114 3l-7-1H25l-8 1zM14 14l9-2 9-1a43 43 0 0117 3 123 123 0 00-18-1h-8l-9 1z"/></g><path fill="#454749" d="M18 39l-1-3 3-1c6-1 16-3 26 1l-1 3c-9-4-19-2-24-1l-3 1z"/><path fill="#454749" d="M19 46a9 9 0 100-18 9 9 0 000 18z"/><path fill="#b4d7ee" d="M19 43a6 6 0 100-12 6 6 0 000 12z"/><path fill="#454749" d="M44 46a9 9 0 100-18 9 9 0 000 18z"/><path fill="#b4d7ee" d="M44 43a6 6 0 100-12 6 6 0 000 12z"/></svg>