<svg width="74" height="73" viewBox="0 0 74 73" fill="none" xmlns="http://www.w3.org/2000/svg">
<path d="M69.183 25.7496L47.6115 4.17469C46.4092 2.97133 44.8135 2.28125 43.2326 2.28125C42.0863 2.28125 41.062 2.64283 40.2647 3.32834L4.66352 33.9564C4.05767 34.4711 3.56581 35.1064 3.21937 35.8219C2.87292 36.5374 2.6795 37.3173 2.65146 38.1117C2.58758 39.8158 3.24686 41.4492 4.5084 42.7118L30.6527 68.8584C31.8537 70.0583 33.4084 70.7188 35.0304 70.7188C35.8619 70.7177 36.6834 70.5369 37.4386 70.1888C38.1938 69.8408 38.8648 69.3336 39.4058 68.7021L70.0293 33.0975C71.7163 31.1379 71.3444 27.9111 69.183 25.7496ZM4.72397 38.1893C4.74207 37.6803 4.86627 37.1806 5.08861 36.7224C5.31095 36.2642 5.62654 35.8574 6.01516 35.5282L41.6186 4.90127C42.0315 4.54425 42.5904 4.35491 43.2326 4.35491C44.2523 4.35491 45.3416 4.83625 46.1458 5.64153L48.0152 7.50988L8.31694 43.5867L5.97524 41.2439C5.12547 40.3941 4.68063 39.3094 4.72397 38.1893ZM68.4564 31.7459L37.8352 67.3505C37.4905 67.7579 37.0608 68.085 36.5762 68.3086C36.0917 68.5323 35.564 68.6471 35.0304 68.6451C33.9616 68.6451 32.9271 68.1991 32.1172 67.3904L17.5138 52.7847L55.6574 15.1555L67.7173 27.2153C69.0906 28.5898 69.4236 30.6235 68.4564 31.7459Z" fill="white"/>
<path d="M54.9297 21.2236L25.9716 50.7818L34.5582 59.3696L35.8596 57.9483C36.7311 58.1468 37.7474 57.8765 38.4797 57.1282C39.5735 56.0093 40.2339 54.4044 40.6468 52.7129L62.5149 28.8099L54.9297 21.2236ZM54.4552 31.5816C53.6522 31.9387 52.2915 32.3367 53.6112 30.7958L54.4997 31.4858C54.486 31.5189 54.4689 31.5497 54.4552 31.5816ZM59.5116 28.0526C59.523 28.0423 59.5173 28.0286 59.5242 28.0183L60.3637 28.8578L44.6459 46.0402C45.2629 44.7787 45.7238 43.4692 46.1697 42.1427C46.3682 41.5473 46.8804 41.6842 47.2876 41.2735C48.1168 40.4363 48.9175 39.5843 49.7251 38.7516C50.7471 37.7 51.0984 36.305 52.0394 35.2476C53.0511 34.1138 54.0218 33.4637 54.6651 32.1919C56.5563 31.3718 58.2398 29.265 59.5116 28.0526ZM28.1604 50.7715L54.9411 23.4342L59.2219 27.7161C59.2094 27.7229 59.1968 27.7161 59.1854 27.7275C58.4417 28.4347 57.6798 29.1361 56.8893 29.8182C56.295 30.3272 55.6764 30.8072 55.0358 31.2566C55.1362 30.7889 55.086 29.9699 54.4222 29.9209C53.0124 29.8103 51.7759 32.793 53.6557 32.5067C53.7914 32.485 53.9249 32.4326 54.0594 32.3949C53.8598 32.7599 53.626 33.1067 53.3819 33.4363C52.8321 34.1857 51.9584 34.6226 51.3345 35.3229C50.5418 36.2103 50.2315 37.4832 49.3829 38.4083C49.0076 38.8166 46.9602 41.4332 46.2325 41.1253C46.1424 41.0899 46.0146 41.1389 45.9838 41.2256C45.7489 41.902 45.5184 42.5841 45.2858 43.2662C45.2458 43.386 45.0017 43.8936 44.7622 44.3966C45.0029 43.2902 45.0337 42.0948 44.9116 41.5302C44.8683 41.3306 44.631 41.3157 44.5181 41.4058C43.5269 42.1986 43.2338 44.0829 43.7676 45.5144C43.4699 45.8201 43.0946 46.0368 42.6144 46.1383C42.335 45.9843 42.1308 46.3995 42.4114 46.5546C42.5026 46.6037 42.5848 46.6276 42.6703 46.6596C42.2688 46.9846 41.8103 47.3029 41.3175 47.6223C41.4419 45.6284 41.5821 41.7298 39.3237 41.2142C39.2119 41.1891 39.1161 41.2199 39.0636 41.3146C38.0759 43.0506 36.6626 46.6904 38.7066 48.5781C38.9473 48.8005 39.2644 48.4606 39.0237 48.2382C37.4554 46.7896 38.3884 44.0783 38.9587 42.5967C39.8427 40.3086 40.7757 44.7068 40.8236 45.3832C40.8841 46.2296 40.8738 47.0816 40.8293 47.9336C37.996 49.7085 34.3791 51.6179 34.1019 55.1846C34.0403 55.9899 34.2217 56.6172 34.5456 57.078L34.508 57.1202L28.1604 50.7715ZM44.3345 42.3252C44.6128 42.8909 44.655 43.4419 44.4588 43.9745C44.4093 44.3395 44.2937 44.6924 44.1178 45.0159C43.9056 44.1011 44.0334 43.0746 44.3345 42.3252ZM35.1023 56.4724C34.9072 56.007 34.7509 55.4184 34.6437 54.6793C34.7987 53.8629 35.1902 53.1101 35.7695 52.5144C37.1212 50.8377 39.01 49.7301 40.7997 48.5861C40.7466 49.2315 40.6651 49.8743 40.5556 50.5126L35.1023 56.4724ZM38.9313 55.5439C38.5883 56.2341 38.0971 56.8401 37.493 57.3187C36.9877 57.6255 36.5497 57.7111 36.1676 57.6107L39.7161 53.7349C39.488 54.3508 39.2279 54.9576 38.9313 55.5439ZM41.2742 48.2793C41.9186 47.8572 42.5414 47.4226 43.1117 46.947C43.1824 46.8877 43.1836 46.817 43.1619 46.7474C43.5269 46.72 43.8292 46.4896 44.0778 46.144C44.0984 46.1771 44.1109 46.217 44.1349 46.2489C44.1574 46.2839 44.1876 46.3133 44.2232 46.3348C44.2587 46.3564 44.2988 46.3695 44.3402 46.3733L41.1316 49.8796C41.1932 49.3286 41.2422 48.788 41.2742 48.2793Z" fill="white"/>
</svg>
