<svg width="73" height="64" viewBox="0 0 73 64" fill="none" xmlns="http://www.w3.org/2000/svg">
<g clip-path="url(#clip0)">
<path d="M71.188 24.95C71.0232 24.9875 71.226 24.95 71.188 24.95V24.95ZM70.4022 15.275C69.4263 12.4875 69.7559 14.375 68.7039 10.6625C68.5012 9.85 68.2477 8.85 67.9182 8.1625C67.3605 7.075 67.3352 7.225 67.3352 6.975C67.3352 6.3125 71.226 1.3125 69.7432 1.1125C69.0208 1.0375 68.197 2.5625 67.1324 3.2375C66.0425 3.7625 66.1185 3.8625 65.827 3.8625C65.4975 3.8625 65.1046 3.4875 65.0413 3.2375C64.7878 2.525 65.2821 0 64.585 0C64.1288 0 63.0262 3.1 62.4305 3.225C61.7715 3.3875 58.8946 1.8 52.9126 5.475C49.7062 7.125 41.8993 13.625 41.8866 13.6375C41.0374 14.225 39.3519 14.225 37.3874 15.6375C31.7604 19.4 23.4972 16.8125 23.3578 16.7625C9.34074 13.4125 7.13553 14.8625 3.20671 18.2C0.570603 20.4375 0.203068 22.7625 0.1397 23.0625C-0.392592 25.6125 0.798728 29.1 0.988832 31.1C1.21696 33.5125 0.646644 33.3125 1.9647 43.3875C2.02807 43.5125 2.48432 43.3875 2.61105 43.575C2.61105 44.625 2.12946 45.0875 2.09144 45.2C1.90133 45.7625 1.90133 46.5125 2.09144 47.2C2.38293 48.225 3.13067 51.85 3.13067 53.0625C3.13067 58.2875 3.18137 58.5625 3.46019 59.2375C3.95446 60.4875 5.04439 60.375 5.6147 60.7375C6.00758 61.175 5.55133 61.8 5.74144 62.3C5.8048 62.55 6.19769 62.8 6.5272 62.925C7.69317 63.375 9.94908 62.9625 10.3166 62.6125C10.5194 62.425 10.38 62.05 10.7095 61.9875C11.3558 61.9875 12.0782 61.925 12.5345 61.675C13.1808 61.3625 13.0541 60.925 12.7246 60.3625C12.6739 60.2625 11.8374 58.7 11.4826 58.3625C11.2164 58.1125 10.8362 57.9875 10.5701 57.8C9.83501 57.1875 9.2647 55.375 9.2647 55.3625C8.68171 52.9375 7.95932 49.575 8.74508 47.0125C9.32807 44.8625 13.7512 36.05 13.7638 36.0375C14.2835 35.225 15.9183 34.6 17.2237 35.1625C17.9841 35.4 19.6697 37.9125 25.5123 39.025C31.5829 40.1125 37.8564 38.775 39.7321 38.775C40.0869 39.025 39.4913 40.4 39.6687 43.6375C39.6687 46.9375 39.618 45.35 39.1491 47.375C38.8703 48.5875 39.58 50.275 38.959 53.2375C38.7815 54.4625 37.7043 57.325 37.9197 58.6625C37.9831 58.7875 38.0465 58.9125 38.1098 59.1C38.1732 59.6625 38.2999 60.1625 38.6928 60.35C39.618 60.8 40.2137 59.9125 39.9348 61.7875C39.8461 62.175 39.6053 63.2875 40.1249 63.6625C40.6826 64.125 44.0031 64.0875 44.7508 63.725C45.0803 63.5375 44.9536 63.1625 45.5619 62.8C45.8027 62.6875 46.994 62.75 46.994 61.9875C47.0321 61.7625 45.8281 59.5 45.8154 59.4875C45.4859 59.05 44.6494 58.925 44.3833 58.4875C43.5088 57.225 44.1678 51.9125 44.4466 51.0625C44.8269 49.6875 45.1564 48.2625 45.5493 47.0125C46.9433 41.7 46.8546 40.6875 47.6404 38.475C47.7418 38.25 48.4515 35.5875 48.9458 34.7375C50.1244 32.6125 51.696 30.6875 53.1914 28.8125C55.4727 25.95 57.5005 22.95 59.7817 20.0875C60.5548 19.2125 60.821 18.375 62.063 19.0875C63.4317 19.8 64.8005 19.9625 66.1059 21.2125C67.9562 22.8125 67.3986 23.4875 67.6013 24.075C67.7915 24.7 68.5772 25.3875 69.4897 25.2625C70.8078 25.0125 71.1373 24.95 71.188 24.95C71.5175 24.8875 71.9104 24.325 72.1005 23.95C72.4934 23.2625 73.013 22.825 73.013 21.8875C73.013 20.925 72.9623 21.5375 70.4022 15.275Z" fill="white"/>
</g>
<defs>
<clipPath id="clip0">
<rect width="73" height="64" fill="white"/>
</clipPath>
</defs>
</svg>
