<svg width="74" height="73" viewBox="0 0 74 73" fill="none" xmlns="http://www.w3.org/2000/svg">
<path d="M54.0956 41.399C53.7877 39.7097 53.4466 37.9566 53.1124 36.2456C52.2478 31.8166 51.3547 27.237 51.3547 25.1131C51.3536 9.32233 47.0203 2.28125 37.3022 2.28125C27.5852 2.28125 23.252 9.32233 23.252 25.1143C23.252 27.2404 22.3578 31.8246 21.492 36.2582C21.1601 37.9646 20.819 39.7143 20.5122 41.4001C13.9548 41.9465 8.78888 47.401 8.78888 54.028C8.78888 60.1908 14.8034 65.4183 19.1184 66.454C19.5826 66.5657 20.121 66.6205 20.7666 66.6205C21.9893 66.6205 23.6238 66.4095 24.9048 66.1517C28.346 69.1082 32.6952 70.7188 37.3022 70.7188C41.9115 70.7188 46.2607 69.107 49.7008 66.1505C50.9829 66.4083 52.6185 66.6193 53.8424 66.6193C54.4892 66.6193 55.0275 66.5646 55.4906 66.4528C59.8045 65.4194 65.8201 60.1919 65.8201 54.028C65.8201 47.401 60.652 41.9442 54.0956 41.399ZM54.8964 63.8932C54.5497 63.9638 54.1962 63.9956 53.8424 63.9879C52.4041 63.9879 50.4034 63.6457 49.443 63.3948C50.4251 62.8735 51.6536 62.3329 52.9733 62.0534C59.9619 60.5638 56.9278 57.2913 52.2524 58.7821C48.5819 59.9524 47.4104 64.4043 47.342 64.6712C44.4653 66.8887 40.9344 68.0897 37.3022 68.0862C33.6724 68.09 30.1438 66.8907 27.2681 64.6757C27.2123 64.4556 26.0477 59.9592 22.3555 58.7821C17.6812 57.2913 14.6471 60.5649 21.6357 62.0534C22.9532 62.3329 24.1816 62.8747 25.1648 63.3948C24.2067 63.6446 22.2026 63.9879 20.7666 63.9879C20.356 63.9879 19.9898 63.9594 19.7138 63.8932C16.5999 63.1461 11.3804 58.9418 11.3804 54.0291C11.3804 48.4845 15.9543 43.9871 21.5958 43.9871C21.9631 43.9871 22.3258 44.0076 22.6817 44.0452C23.7949 37.3498 25.8424 28.7403 25.8424 25.1143C25.8424 8.09502 30.9718 4.91381 37.3011 4.91381C43.6361 4.91381 48.7609 8.09502 48.7609 25.1143C48.7609 28.7392 50.8095 37.3498 51.9228 44.0464C52.2798 44.0076 52.6436 43.9871 53.0109 43.9871C58.6524 43.9871 63.2263 48.4834 63.2263 54.0291C63.2286 58.9418 58.0091 63.1461 54.8964 63.8932Z" fill="white"/>
</svg>
