<svg width="69" height="69" viewBox="0 0 69 69" fill="none" xmlns="http://www.w3.org/2000/svg">
<path d="M67.0078 32.7891H59.1421L63.8825 28.0475C64.0459 27.8897 64.1763 27.7009 64.2659 27.4921C64.3556 27.2834 64.4028 27.0589 64.4048 26.8317C64.4068 26.6045 64.3635 26.3792 64.2774 26.169C64.1914 25.9587 64.0644 25.7677 63.9037 25.607C63.7431 25.4464 63.5521 25.3193 63.3418 25.2333C63.1315 25.1473 62.9062 25.104 62.679 25.106C62.4519 25.1079 62.2274 25.1551 62.0186 25.2448C61.8099 25.3345 61.6211 25.4648 61.4633 25.6282L54.3024 32.7891H48.9381L51.785 29.9443C51.9485 29.7865 52.0788 29.5977 52.1685 29.389C52.2581 29.1802 52.3053 28.9557 52.3073 28.7286C52.3093 28.5014 52.266 28.2761 52.18 28.0658C52.0939 27.8555 51.9669 27.6645 51.8063 27.5039C51.6456 27.3432 51.4546 27.2162 51.2443 27.1302C51.034 27.0441 50.8088 27.0008 50.5816 27.0028C50.3544 27.0048 50.1299 27.052 49.9212 27.1417C49.7124 27.2313 49.5236 27.3617 49.3658 27.5251L44.0995 32.7891H38.6302L48.9472 22.4732H59.0748C59.5286 22.4732 59.9637 22.293 60.2846 21.9721C60.6055 21.6513 60.7857 21.2161 60.7857 20.7623C60.7857 20.3085 60.6055 19.8734 60.2846 19.5525C59.9637 19.2316 59.5286 19.0514 59.0748 19.0514H52.3691L58.6961 12.7232C58.8595 12.5654 58.9899 12.3766 59.0795 12.1678C59.1692 11.9591 59.2164 11.7346 59.2184 11.5074C59.2203 11.2802 59.177 11.0549 59.091 10.8447C59.005 10.6344 58.878 10.4434 58.7173 10.2827C58.5567 10.1221 58.3656 9.99503 58.1554 9.909C57.9451 9.82297 57.7198 9.77968 57.4926 9.78166C57.2654 9.78363 57.0409 9.83083 56.8322 9.9205C56.6235 10.0102 56.4347 10.1405 56.2768 10.3039L49.9498 16.6321V9.92638C49.9498 9.47261 49.7695 9.03742 49.4487 8.71656C49.1278 8.3957 48.6926 8.21544 48.2388 8.21544C47.7851 8.21544 47.3499 8.3957 47.029 8.71656C46.7082 9.03742 46.5279 9.47261 46.5279 9.92638V20.054L36.211 30.3698V24.9005L41.4749 19.6354C41.6384 19.4775 41.7687 19.2888 41.8584 19.08C41.948 18.8713 41.9952 18.6468 41.9972 18.4196C41.9992 18.1924 41.9559 17.9671 41.8699 17.7568C41.7838 17.5466 41.6568 17.3555 41.4961 17.1949C41.3355 17.0343 41.1445 16.9072 40.9342 16.8212C40.7239 16.7352 40.4986 16.6919 40.2715 16.6938C40.0443 16.6958 39.8198 16.743 39.611 16.8327C39.4023 16.9224 39.2135 17.0527 39.0557 17.2161L36.211 20.062V14.6976L43.3729 7.53677C43.5364 7.37894 43.6667 7.19014 43.7564 6.9814C43.846 6.77266 43.8932 6.54815 43.8952 6.32098C43.8972 6.0938 43.8539 5.8685 43.7679 5.65823C43.6818 5.44797 43.5548 5.25694 43.3941 5.09629C43.2335 4.93565 43.0425 4.80861 42.8322 4.72258C42.6219 4.63655 42.3966 4.59326 42.1695 4.59524C41.9423 4.59721 41.7178 4.64441 41.509 4.73408C41.3003 4.82375 41.1115 4.95409 40.9537 5.1175L36.211 9.85794V1.99219C36.211 1.53842 36.0307 1.10324 35.7098 0.782372C35.389 0.461509 34.9538 0.28125 34.5 0.28125C34.0463 0.28125 33.6111 0.461509 33.2902 0.782372C32.9693 1.10324 32.7891 1.53842 32.7891 1.99219V9.85794L28.0486 5.11636C27.8908 4.95295 27.702 4.8226 27.4933 4.73294C27.2845 4.64327 27.06 4.59607 26.8329 4.59409C26.6057 4.59212 26.3804 4.63541 26.1701 4.72144C25.9598 4.80747 25.7688 4.93451 25.6082 5.09515C25.4475 5.2558 25.3205 5.44683 25.2345 5.65709C25.1484 5.86736 25.1051 6.09266 25.1071 6.31983C25.1091 6.54701 25.1563 6.77152 25.246 6.98026C25.3356 7.189 25.466 7.3778 25.6294 7.53562L32.7891 14.6965V20.0608L29.9444 17.215C29.7865 17.0516 29.5977 16.9212 29.389 16.8315C29.1803 16.7419 28.9558 16.6947 28.7286 16.6927C28.5014 16.6907 28.2761 16.734 28.0658 16.82C27.8556 16.9061 27.6645 17.0331 27.5039 17.1938C27.3432 17.3544 27.2162 17.5454 27.1302 17.7557C27.0441 17.966 27.0009 18.1913 27.0028 18.4184C27.0048 18.6456 27.052 18.8701 27.1417 19.0789C27.2313 19.2876 27.3617 19.4764 27.5251 19.6342L32.7891 24.8994V30.3687L22.4744 20.0528V9.92523C22.4744 9.47146 22.2942 9.03628 21.9733 8.71542C21.6524 8.39456 21.2172 8.2143 20.7635 8.2143C20.3097 8.2143 19.8745 8.39456 19.5537 8.71542C19.2328 9.03628 19.0525 9.47146 19.0525 9.92523V16.631L12.7232 10.3028C12.5654 10.1394 12.3766 10.009 12.1678 9.91936C11.9591 9.82969 11.7346 9.78249 11.5074 9.78052C11.2802 9.77854 11.0549 9.82183 10.8447 9.90786C10.6344 9.99389 10.4434 10.1209 10.2827 10.2816C10.1221 10.4422 9.99505 10.6332 9.90902 10.8435C9.82299 11.0538 9.7797 11.2791 9.78168 11.5063C9.78365 11.7334 9.83085 11.9579 9.92052 12.1667C10.0102 12.3754 10.1405 12.5642 10.3039 12.722L16.6333 19.0502H9.92754C9.47377 19.0502 9.03858 19.2305 8.71772 19.5514C8.39686 19.8722 8.2166 20.3074 8.2166 20.7612C8.2166 21.2149 8.39686 21.6501 8.71772 21.971C9.03858 22.2919 9.47377 22.4721 9.92754 22.4721H20.0551L30.3698 32.7879H24.9005L19.6365 27.5239C19.4787 27.3605 19.2899 27.2302 19.0812 27.1405C18.8724 27.0508 18.6479 27.0036 18.4207 27.0017C18.1936 26.9997 17.9683 27.043 17.758 27.129C17.5477 27.215 17.3567 27.3421 17.1961 27.5027C17.0354 27.6634 16.9084 27.8544 16.8223 28.0647C16.7363 28.2749 16.693 28.5002 16.695 28.7274C16.697 28.9546 16.7442 29.1791 16.8338 29.3878C16.9235 29.5966 17.0539 29.7854 17.2173 29.9432L20.062 32.7879H14.6976L7.53793 25.6271C7.3801 25.4637 7.19131 25.3333 6.98256 25.2437C6.77382 25.154 6.54931 25.1068 6.32214 25.1048C6.09496 25.1028 5.86966 25.1461 5.6594 25.2322C5.44913 25.3182 5.2581 25.4452 5.09745 25.6059C4.93681 25.7665 4.80977 25.9575 4.72374 26.1678C4.63771 26.3781 4.59442 26.6034 4.5964 26.8306C4.59837 27.0577 4.64557 27.2822 4.73524 27.491C4.82491 27.6997 4.95525 27.8885 5.11866 28.0463L9.8591 32.7879H1.99221C1.53829 32.7879 1.10296 32.9682 0.78199 33.2892C0.46102 33.6102 0.280701 34.0455 0.280701 34.4994C0.280701 34.9534 0.46102 35.3887 0.78199 35.7096C1.10296 36.0306 1.53829 36.2109 1.99221 36.2109H9.85796L5.11752 40.9525C4.95867 41.1114 4.83268 41.3001 4.74674 41.5077C4.66079 41.7153 4.61659 41.9378 4.61664 42.1626C4.61669 42.3873 4.66101 42.6097 4.74704 42.8173C4.83308 43.0249 4.95917 43.2135 5.11809 43.3724C5.27702 43.5312 5.46568 43.6572 5.67329 43.7431C5.88091 43.8291 6.10342 43.8733 6.32813 43.8732C6.55283 43.8732 6.77532 43.8289 6.9829 43.7428C7.19048 43.6568 7.37908 43.5307 7.53793 43.3718L14.6976 36.2109H20.062L17.2173 39.0557C16.8965 39.3766 16.7163 39.8119 16.7164 40.2657C16.7165 40.7195 16.8969 41.1547 17.2178 41.4755C17.5388 41.7963 17.9741 41.9765 18.4279 41.9764C18.8817 41.9763 19.3169 41.7959 19.6377 41.4749L24.9017 36.2109H30.371L20.0563 46.5267H9.92868C9.47491 46.5267 9.03972 46.707 8.71886 47.0279C8.398 47.3487 8.21774 47.7839 8.21774 48.2377C8.21774 48.6915 8.398 49.1266 8.71886 49.4475C9.03972 49.7684 9.47491 49.9486 9.92868 49.9486H16.6344L10.3051 56.2768C10.1462 56.4357 10.0202 56.6244 9.9343 56.832C9.84836 57.0396 9.80415 57.2621 9.8042 57.4869C9.80431 57.9407 9.98469 58.3758 10.3057 58.6966C10.6266 59.0175 11.0619 59.1976 11.5157 59.1975C11.9695 59.1974 12.4047 59.017 12.7255 58.6961L19.0548 52.3679V59.0736C19.0548 59.5274 19.2351 59.9626 19.5559 60.2834C19.8768 60.6043 20.312 60.7846 20.7658 60.7846C21.2195 60.7846 21.6547 60.6043 21.9756 60.2834C22.2964 59.9626 22.4767 59.5274 22.4767 59.0736V48.946L32.7914 38.6302V44.0995L27.5274 49.3646C27.2066 49.6856 27.0264 50.1209 27.0265 50.5747C27.0266 51.0285 27.207 51.4636 27.528 51.7845C27.8489 52.1053 28.2842 52.2855 28.738 52.2853C29.1918 52.2852 29.627 52.1049 29.9478 51.7839L32.7925 48.938V54.3024L25.6328 61.4621C25.4739 61.621 25.348 61.8097 25.262 62.0173C25.1761 62.2249 25.1319 62.4474 25.1319 62.6721C25.132 62.8968 25.1763 63.1193 25.2623 63.3269C25.3484 63.5345 25.4744 63.7231 25.6334 63.8819C25.7923 64.0408 25.981 64.1668 26.1886 64.2527C26.3962 64.3387 26.6187 64.3829 26.8434 64.3828C27.0681 64.3828 27.2906 64.3384 27.4982 64.2524C27.7058 64.1664 27.8944 64.0403 28.0532 63.8814L32.7936 59.1409V67.0078C32.7936 67.4616 32.9739 67.8968 33.2948 68.2176C33.6156 68.5385 34.0508 68.7188 34.5046 68.7188C34.9584 68.7188 35.3935 68.5385 35.7144 68.2176C36.0353 67.8968 36.2155 67.4616 36.2155 67.0078V59.1421L40.9582 63.8825C41.2924 64.2167 41.7293 64.3832 42.1684 64.3832C42.5067 64.3832 42.8374 64.2828 43.1186 64.0949C43.3999 63.907 43.6191 63.6399 43.7486 63.3274C43.8782 63.0149 43.9121 62.671 43.8463 62.3392C43.7804 62.0074 43.6177 61.7026 43.3786 61.4632L36.211 54.3024V48.938L39.0557 51.7839C39.3899 52.1181 39.829 52.2846 40.2659 52.2846C40.6042 52.2846 40.9348 52.1842 41.2161 51.9963C41.4973 51.8083 41.7166 51.5413 41.8461 51.2288C41.9756 50.9163 42.0096 50.5724 41.9437 50.2406C41.8779 49.9088 41.7151 49.604 41.4761 49.3646L36.211 44.0995V38.6302L46.5279 48.946V59.0736C46.5279 59.5274 46.7082 59.9626 47.029 60.2834C47.3499 60.6043 47.7851 60.7846 48.2388 60.7846C48.6926 60.7846 49.1278 60.6043 49.4487 60.2834C49.7695 59.9626 49.9498 59.5274 49.9498 59.0736V52.3679L56.2768 58.6961C56.611 59.0303 57.0502 59.1968 57.487 59.1968C57.8253 59.1967 58.156 59.0964 58.4372 58.9085C58.7185 58.7205 58.9377 58.4534 59.0672 58.1409C59.1968 57.8285 59.2307 57.4846 59.1649 57.1528C59.099 56.821 58.9363 56.5162 58.6972 56.2768L52.3702 49.9486H59.0759C59.5297 49.9486 59.9649 49.7684 60.2857 49.4475C60.6066 49.1266 60.7869 48.6915 60.7869 48.2377C60.7869 47.7839 60.6066 47.3487 60.2857 47.0279C59.9649 46.707 59.5297 46.5267 59.0759 46.5267H48.9483L38.6302 36.2109H44.0995L49.3658 41.4749C49.7 41.8091 50.1369 41.9757 50.576 41.9757C50.9143 41.9756 51.2449 41.8752 51.5262 41.6873C51.8074 41.4994 52.0267 41.2323 52.1562 40.9198C52.2857 40.6073 52.3197 40.2634 52.2538 39.9316C52.188 39.5998 52.0252 39.295 51.7862 39.0557L48.9381 36.2109H54.3024L61.4621 43.3718C61.7963 43.706 62.2355 43.8725 62.6723 43.8725C63.0106 43.8724 63.3412 43.7721 63.6225 43.5842C63.9038 43.3962 64.123 43.1291 64.2525 42.8167C64.382 42.5042 64.416 42.1603 64.3502 41.8285C64.2843 41.4967 64.1216 41.1919 63.8825 40.9525L59.1421 36.2109H67.0078C67.4616 36.2109 67.8968 36.0307 68.2177 35.7098C68.5385 35.389 68.7188 34.9538 68.7188 34.5C68.7188 34.0462 68.5385 33.611 68.2177 33.2902C67.8968 32.9693 67.4616 32.7891 67.0078 32.7891Z" fill="white"/>
</svg>
