<svg width="73" height="73" viewBox="0 0 73 73" fill="none" xmlns="http://www.w3.org/2000/svg">
<path d="M69.0078 34.7891H61.1421L65.8825 30.0475C66.0459 29.8897 66.1763 29.7009 66.2659 29.4921C66.3556 29.2834 66.4028 29.0589 66.4048 28.8317C66.4068 28.6045 66.3635 28.3792 66.2774 28.169C66.1914 27.9587 66.0644 27.7677 65.9037 27.607C65.7431 27.4464 65.5521 27.3193 65.3418 27.2333C65.1315 27.1473 64.9062 27.104 64.679 27.106C64.4519 27.1079 64.2274 27.1551 64.0186 27.2448C63.8099 27.3345 63.6211 27.4648 63.4633 27.6282L56.3024 34.7891H50.9381L53.785 31.9443C53.9485 31.7865 54.0788 31.5977 54.1685 31.389C54.2581 31.1802 54.3053 30.9557 54.3073 30.7286C54.3093 30.5014 54.266 30.2761 54.18 30.0658C54.0939 29.8555 53.9669 29.6645 53.8063 29.5039C53.6456 29.3432 53.4546 29.2162 53.2443 29.1302C53.034 29.0441 52.8088 29.0008 52.5816 29.0028C52.3544 29.0048 52.1299 29.052 51.9212 29.1417C51.7124 29.2313 51.5236 29.3617 51.3658 29.5251L46.0995 34.7891H40.6302L50.9472 24.4732H61.0748C61.5286 24.4732 61.9637 24.293 62.2846 23.9721C62.6055 23.6513 62.7857 23.2161 62.7857 22.7623C62.7857 22.3085 62.6055 21.8734 62.2846 21.5525C61.9637 21.2316 61.5286 21.0514 61.0748 21.0514H54.3691L60.6961 14.7232C60.8595 14.5654 60.9899 14.3766 61.0795 14.1678C61.1692 13.9591 61.2164 13.7346 61.2184 13.5074C61.2203 13.2802 61.177 13.0549 61.091 12.8447C61.005 12.6344 60.878 12.4434 60.7173 12.2827C60.5567 12.1221 60.3656 11.995 60.1554 11.909C59.9451 11.823 59.7198 11.7797 59.4926 11.7817C59.2654 11.7836 59.0409 11.8308 58.8322 11.9205C58.6235 12.0102 58.4347 12.1405 58.2768 12.3039L51.9498 18.6321V11.9264C51.9498 11.4726 51.7695 11.0374 51.4487 10.7166C51.1278 10.3957 50.6926 10.2154 50.2388 10.2154C49.7851 10.2154 49.3499 10.3957 49.029 10.7166C48.7082 11.0374 48.5279 11.4726 48.5279 11.9264V22.054L38.211 32.3698V26.9005L43.4749 21.6354C43.6384 21.4775 43.7687 21.2888 43.8584 21.08C43.948 20.8713 43.9952 20.6468 43.9972 20.4196C43.9992 20.1924 43.9559 19.9671 43.8699 19.7568C43.7838 19.5466 43.6568 19.3555 43.4961 19.1949C43.3355 19.0343 43.1445 18.9072 42.9342 18.8212C42.7239 18.7352 42.4986 18.6919 42.2715 18.6938C42.0443 18.6958 41.8198 18.743 41.611 18.8327C41.4023 18.9224 41.2135 19.0527 41.0557 19.2161L38.211 22.062V16.6976L45.3729 9.53677C45.5364 9.37894 45.6667 9.19014 45.7564 8.9814C45.846 8.77266 45.8932 8.54815 45.8952 8.32098C45.8972 8.0938 45.8539 7.8685 45.7679 7.65823C45.6818 7.44797 45.5548 7.25694 45.3941 7.09629C45.2335 6.93565 45.0425 6.80861 44.8322 6.72258C44.6219 6.63655 44.3966 6.59326 44.1695 6.59524C43.9423 6.59721 43.7178 6.64441 43.509 6.73408C43.3003 6.82374 43.1115 6.95409 42.9537 7.1175L38.211 11.8579V3.99219C38.211 3.53842 38.0307 3.10324 37.7098 2.78237C37.389 2.46151 36.9538 2.28125 36.5 2.28125C36.0463 2.28125 35.6111 2.46151 35.2902 2.78237C34.9693 3.10324 34.7891 3.53842 34.7891 3.99219V11.8579L30.0486 7.11636C29.8908 6.95295 29.702 6.8226 29.4933 6.73294C29.2845 6.64327 29.06 6.59607 28.8329 6.59409C28.6057 6.59212 28.3804 6.63541 28.1701 6.72144C27.9598 6.80747 27.7688 6.93451 27.6082 7.09515C27.4475 7.2558 27.3205 7.44683 27.2345 7.65709C27.1484 7.86736 27.1051 8.09266 27.1071 8.31983C27.1091 8.54701 27.1563 8.77152 27.246 8.98026C27.3356 9.189 27.466 9.3778 27.6294 9.53562L34.7891 16.6965V22.0608L31.9444 19.215C31.7865 19.0516 31.5977 18.9212 31.389 18.8315C31.1803 18.7419 30.9558 18.6947 30.7286 18.6927C30.5014 18.6907 30.2761 18.734 30.0658 18.82C29.8556 18.9061 29.6645 19.0331 29.5039 19.1938C29.3432 19.3544 29.2162 19.5454 29.1302 19.7557C29.0441 19.966 29.0009 20.1913 29.0028 20.4184C29.0048 20.6456 29.052 20.8701 29.1417 21.0789C29.2313 21.2876 29.3617 21.4764 29.5251 21.6342L34.7891 26.8994V32.3687L24.4744 22.0528V11.9252C24.4744 11.4715 24.2942 11.0363 23.9733 10.7154C23.6524 10.3946 23.2172 10.2143 22.7635 10.2143C22.3097 10.2143 21.8745 10.3946 21.5537 10.7154C21.2328 11.0363 21.0525 11.4715 21.0525 11.9252V18.631L14.7232 12.3028C14.5654 12.1394 14.3766 12.009 14.1678 11.9194C13.9591 11.8297 13.7346 11.7825 13.5074 11.7805C13.2802 11.7785 13.0549 11.8218 12.8447 11.9079C12.6344 11.9939 12.4434 12.1209 12.2827 12.2816C12.1221 12.4422 11.995 12.6332 11.909 12.8435C11.823 13.0538 11.7797 13.2791 11.7817 13.5063C11.7837 13.7334 11.8309 13.9579 11.9205 14.1667C12.0102 14.3754 12.1405 14.5642 12.3039 14.722L18.6333 21.0502H11.9275C11.4738 21.0502 11.0386 21.2305 10.7177 21.5514C10.3969 21.8722 10.2166 22.3074 10.2166 22.7612C10.2166 23.2149 10.3969 23.6501 10.7177 23.971C11.0386 24.2918 11.4738 24.4721 11.9275 24.4721H22.0551L32.3698 34.7879H26.9005L21.6365 29.5239C21.4787 29.3605 21.2899 29.2302 21.0812 29.1405C20.8724 29.0508 20.6479 29.0036 20.4207 29.0017C20.1936 28.9997 19.9683 29.043 19.758 29.129C19.5477 29.215 19.3567 29.3421 19.1961 29.5027C19.0354 29.6634 18.9084 29.8544 18.8223 30.0647C18.7363 30.2749 18.693 30.5002 18.695 30.7274C18.697 30.9546 18.7442 31.1791 18.8338 31.3878C18.9235 31.5966 19.0539 31.7854 19.2173 31.9432L22.062 34.7879H16.6976L9.53793 27.6271C9.3801 27.4637 9.19131 27.3333 8.98256 27.2437C8.77382 27.154 8.54931 27.1068 8.32214 27.1048C8.09496 27.1028 7.86966 27.1461 7.6594 27.2322C7.44913 27.3182 7.2581 27.4452 7.09745 27.6059C6.93681 27.7665 6.80977 27.9575 6.72374 28.1678C6.63771 28.3781 6.59442 28.6034 6.5964 28.8306C6.59837 29.0577 6.64557 29.2822 6.73524 29.491C6.82491 29.6997 6.95525 29.8885 7.11866 30.0463L11.8591 34.7879H3.99221C3.53829 34.7879 3.10296 34.9682 2.78199 35.2892C2.46102 35.6102 2.2807 36.0455 2.2807 36.4994C2.2807 36.9534 2.46102 37.3887 2.78199 37.7096C3.10296 38.0306 3.53829 38.2109 3.99221 38.2109H11.858L7.11752 42.9525C6.95867 43.1114 6.83268 43.3001 6.74674 43.5077C6.66079 43.7153 6.61659 43.9379 6.61664 44.1626C6.61669 44.3873 6.66101 44.6097 6.74704 44.8173C6.83308 45.0249 6.95917 45.2135 7.11809 45.3724C7.27702 45.5312 7.46568 45.6572 7.67329 45.7431C7.88091 45.8291 8.10342 45.8733 8.32813 45.8732C8.55283 45.8732 8.77532 45.8289 8.9829 45.7428C9.19048 45.6568 9.37908 45.5307 9.53793 45.3718L16.6976 38.2109H22.062L19.2173 41.0557C18.8965 41.3766 18.7163 41.8119 18.7164 42.2657C18.7165 42.7195 18.8969 43.1547 19.2178 43.4755C19.5388 43.7963 19.9741 43.9765 20.4279 43.9764C20.8817 43.9763 21.3169 43.7959 21.6377 43.4749L26.9017 38.2109H32.371L22.0563 48.5267H11.9287C11.4749 48.5267 11.0397 48.707 10.7189 49.0279C10.398 49.3487 10.2177 49.7839 10.2177 50.2377C10.2177 50.6915 10.398 51.1266 10.7189 51.4475C11.0397 51.7684 11.4749 51.9486 11.9287 51.9486H18.6344L12.3051 58.2768C12.1462 58.4357 12.0202 58.6244 11.9343 58.832C11.8484 59.0396 11.8042 59.2621 11.8042 59.4869C11.8043 59.9407 11.9847 60.3758 12.3057 60.6966C12.6266 61.0175 13.0619 61.1976 13.5157 61.1975C13.9695 61.1974 14.4047 61.017 14.7255 60.6961L21.0548 54.3679V61.0736C21.0548 61.5274 21.2351 61.9626 21.5559 62.2834C21.8768 62.6043 22.312 62.7846 22.7658 62.7846C23.2195 62.7846 23.6547 62.6043 23.9756 62.2834C24.2964 61.9626 24.4767 61.5274 24.4767 61.0736V50.946L34.7914 40.6302V46.0995L29.5274 51.3646C29.2066 51.6856 29.0264 52.1209 29.0265 52.5747C29.0266 53.0285 29.207 53.4636 29.528 53.7845C29.8489 54.1053 30.2842 54.2854 30.738 54.2853C31.1918 54.2852 31.627 54.1049 31.9478 53.7839L34.7925 50.938V56.3024L27.6328 63.4621C27.474 63.621 27.348 63.8097 27.262 64.0173C27.1761 64.2249 27.1319 64.4474 27.1319 64.6721C27.132 64.8968 27.1763 65.1193 27.2623 65.3269C27.3484 65.5345 27.4744 65.7231 27.6334 65.8819C27.7923 66.0408 27.981 66.1668 28.1886 66.2527C28.3962 66.3387 28.6187 66.3829 28.8434 66.3828C29.0681 66.3828 29.2906 66.3384 29.4982 66.2524C29.7058 66.1664 29.8944 66.0403 30.0532 65.8814L34.7936 61.1409V69.0078C34.7936 69.4616 34.9739 69.8968 35.2948 70.2176C35.6156 70.5385 36.0508 70.7188 36.5046 70.7188C36.9584 70.7188 37.3935 70.5385 37.7144 70.2176C38.0353 69.8968 38.2155 69.4616 38.2155 69.0078V61.1421L42.9582 65.8825C43.2924 66.2167 43.7293 66.3832 44.1684 66.3832C44.5067 66.3832 44.8374 66.2828 45.1186 66.0949C45.3999 65.907 45.6191 65.6399 45.7486 65.3274C45.8782 65.0149 45.9121 64.671 45.8463 64.3392C45.7804 64.0074 45.6177 63.7026 45.3786 63.4632L38.211 56.3024V50.938L41.0557 53.7839C41.3899 54.1181 41.829 54.2846 42.2659 54.2846C42.6041 54.2846 42.9348 54.1842 43.2161 53.9963C43.4973 53.8083 43.7166 53.5413 43.8461 53.2288C43.9756 52.9163 44.0096 52.5724 43.9437 52.2406C43.8779 51.9088 43.7151 51.604 43.4761 51.3646L38.211 46.0995V40.6302L48.5279 50.946V61.0736C48.5279 61.5274 48.7082 61.9626 49.029 62.2834C49.3499 62.6043 49.7851 62.7846 50.2388 62.7846C50.6926 62.7846 51.1278 62.6043 51.4487 62.2834C51.7695 61.9626 51.9498 61.5274 51.9498 61.0736V54.3679L58.2768 60.6961C58.611 61.0303 59.0502 61.1968 59.487 61.1968C59.8253 61.1967 60.156 61.0964 60.4372 60.9085C60.7185 60.7205 60.9377 60.4534 61.0672 60.1409C61.1968 59.8284 61.2307 59.4846 61.1649 59.1528C61.099 58.821 60.9363 58.5162 60.6972 58.2768L54.3702 51.9486H61.0759C61.5297 51.9486 61.9649 51.7684 62.2857 51.4475C62.6066 51.1266 62.7869 50.6915 62.7869 50.2377C62.7869 49.7839 62.6066 49.3487 62.2857 49.0279C61.9649 48.707 61.5297 48.5267 61.0759 48.5267H50.9483L40.6302 38.2109H46.0995L51.3658 43.4749C51.7 43.8091 52.1369 43.9757 52.576 43.9757C52.9143 43.9756 53.2449 43.8752 53.5262 43.6873C53.8074 43.4994 54.0267 43.2323 54.1562 42.9198C54.2857 42.6073 54.3197 42.2634 54.2538 41.9316C54.188 41.5998 54.0252 41.295 53.7862 41.0557L50.9381 38.2109H56.3024L63.4621 45.3718C63.7963 45.706 64.2355 45.8725 64.6723 45.8725C65.0106 45.8724 65.3412 45.7721 65.6225 45.5842C65.9038 45.3962 66.123 45.1291 66.2525 44.8167C66.382 44.5042 66.416 44.1603 66.3502 43.8285C66.2843 43.4967 66.1216 43.1919 65.8825 42.9525L61.1421 38.2109H69.0078C69.4616 38.2109 69.8968 38.0307 70.2177 37.7098C70.5385 37.389 70.7188 36.9538 70.7188 36.5C70.7188 36.0462 70.5385 35.611 70.2177 35.2902C69.8968 34.9693 69.4616 34.7891 69.0078 34.7891Z" fill="white"/>
</svg>
